<?xml version="1.0" encoding="UTF-8" standalone="no"?><!-- Generator: Gravit.io --><svg xmlns="http://www.w3.org/2000/svg" xmlns:xlink="http://www.w3.org/1999/xlink" style="isolation:isolate" viewBox="0 0 100 100" width="100pt" height="100pt"><g style="isolation:isolate"><path d=" M 48.349 67.475 L 48.349 75 L 48.349 87.5 L 37.524 81.25 L 31.559 77.806 L 37.524 81.25 L 48.349 87.5 L 37.524 93.75 L 26.699 100 L 26.699 87.5 L 26.699 75 L 26.699 75 L 26.699 75 L 37.524 68.75 L 48.349 62.5 L 48.349 62.5 L 59.175 68.75 L 70 75 L 59.175 81.25 L 48.349 87.5 L 48.349 75 L 48.349 67.475 Z " fill-rule="evenodd" fill="rgb(255,255,255)" fill-opacity="0.45"/><path d=" M 26.699 50 L 26.699 50 L 37.524 56.25 L 48.349 62.5 L 48.349 50 L 48.349 43.112 L 48.349 50 L 48.349 62.5 L 59.175 56.25 L 65.691 52.488 L 59.175 56.25 L 48.349 62.5 L 59.175 68.75 L 70 75 L 70 62.5 L 70 50 L 70 50 L 59.175 43.75 L 48.349 37.5 L 48.349 37.5 L 48.349 37.5 L 37.524 43.75 L 31.007 47.512 L 37.524 43.75 L 48.349 37.5 L 37.524 31.25 L 26.699 25 L 26.699 37.5 L 26.699 50 Z " fill-rule="evenodd" fill="rgb(255,255,255)"/><path d=" M 52.658 14.988 L 59.175 18.75 L 70 25 L 59.175 31.25 L 48.349 37.5 L 48.349 25 L 48.349 17.475 L 48.349 25 L 48.349 37.5 L 37.524 31.25 L 26.699 25 L 37.524 18.75 L 48.349 12.5 L 48.349 12.5 L 48.349 12.5 L 59.175 6.25 L 70 0 L 70 12.5 L 70 25 L 59.175 18.75 L 52.658 14.988 Z " fill-rule="evenodd" fill="rgb(255,255,255)" fill-opacity="0.55"/></g></svg>