<?xml version="1.0" encoding="UTF-8" standalone="no"?><!-- Generator: Gravit.io --><svg xmlns="http://www.w3.org/2000/svg" xmlns:xlink="http://www.w3.org/1999/xlink" style="isolation:isolate" viewBox="0 0 43 100" width="43pt" height="100pt"><g><path d=" M 21.651 67.475 L 21.651 75 L 21.651 87.5 L 10.825 81.25 L 4.86 77.806 L 10.825 81.25 L 21.651 87.5 L 10.825 93.75 L 0 100 L 0 87.5 L 0 75 L 0 75 L 0 75 L 10.825 68.75 L 21.651 62.5 L 21.651 62.5 L 32.476 68.75 L 43.301 75 L 32.476 81.25 L 21.651 87.5 L 21.651 75 L 21.651 67.475 Z " fill-rule="evenodd" fill="rgb(40,116,174)"/><path d=" M 21.651 87.5 L 10.825 93.75 L 0 100 L 0 87.5 L 0 75 L 10.825 81.25 L 21.651 87.5 Z " fill="rgb(40,116,174)"/><path d=" M 21.651 87.5 L 10.825 81.25 L 0 75 L 10.825 68.75 L 21.651 62.5 L 21.651 75 L 21.651 87.5 Z " fill="rgb(18,92,149)"/><path d=" M 43.301 75 L 32.476 81.25 L 21.651 87.5 L 21.651 75 L 21.651 62.5 L 32.476 68.75 L 43.301 75 Z " fill="rgb(12,138,234)"/><path d=" M 21.651 62.5 L 10.825 56.25 L 0 50 L 10.825 43.75 L 21.651 37.5 L 21.651 50 L 21.651 62.5 Z  M 21.651 62.5 L 21.651 50 L 21.651 37.5 L 32.476 43.75 L 43.301 50 L 32.476 56.25 L 21.651 62.5 Z  M 43.301 75 L 32.476 68.75 L 21.651 62.5 L 32.476 56.25 L 43.301 50 L 43.301 62.5 L 43.301 75 Z " fill-rule="evenodd" fill="rgb(10,97,164)"/><path d=" M 21.651 12.5 L 21.651 12.5 L 10.825 18.75 L 0 25 L 0 25 L 0 25 L 0 37.5 L 0 50 L 10.825 43.75 L 21.651 37.5 L 10.825 31.25 L 4.86 27.806 L 10.825 31.25 L 21.651 37.5 L 21.651 25 L 21.651 17.475 L 21.651 25 L 21.651 37.5 L 32.476 31.25 L 43.301 25 L 32.476 18.75 L 25.959 14.988 L 32.476 18.75 L 43.301 25 L 43.301 12.5 L 43.301 0 L 32.476 6.25 L 21.651 12.5 L 21.651 12.5 Z " fill-rule="evenodd" fill="rgb(0,212,92)"/><path d=" M 21.651 37.5 L 10.825 43.75 L 0 50 L 0 37.5 L 0 25 L 10.825 31.25 L 21.651 37.5 Z " fill="rgb(0,212,92)"/><path d=" M 21.651 37.5 L 10.825 31.25 L 0 25 L 10.825 18.75 L 21.651 12.5 L 21.651 25 L 21.651 37.5 Z " fill="rgb(13,187,88)"/><path d=" M 43.301 25 L 32.476 31.25 L 21.651 37.5 L 21.651 25 L 21.651 12.5 L 32.476 18.75 L 43.301 25 Z " fill="rgb(28,238,119)"/><path d=" M 43.301 0 L 43.301 12.5 L 43.301 25 L 32.476 18.75 L 21.651 12.5 L 32.476 6.25 L 43.301 0 Z " fill="rgb(26,255,126)"/></g></svg>