<?xml version="1.0" encoding="UTF-8" standalone="no"?><!-- Generator: Gravit.io --><svg xmlns="http://www.w3.org/2000/svg" xmlns:xlink="http://www.w3.org/1999/xlink" style="isolation:isolate" viewBox="0 0 87 149.5" width="87pt" height="149.5pt"><g><g opacity="0.5"><path d=" M -0.001 50 L 43.499 75 L 87 50 L 43.499 25 L -0.001 50 Z " fill="rgb(0,0,0)"/></g><g opacity="0.75"><path d=" M -0.001 100 L -0.001 50 L 43.499 75 L 43.499 125 L -0.001 100 Z " fill="rgb(0,0,0)"/></g><g opacity="0.25"><path d=" M 87 50 L 87 100 L 43.499 125 L 43.499 75 L 87 50 Z " fill="rgb(0,0,0)"/></g></g><g><g opacity="0.5"><path d=" M 43.499 -25 L 87 0 L 130.501 -25 L 87 -50 L 43.499 -25 Z " fill="rgb(0,0,0)"/></g><g opacity="0.75"><path d=" M 43.499 25 L 43.499 -25 L 87 0 L 87 50 L 43.499 25 Z " fill="rgb(0,0,0)"/></g><g opacity="0.25"><path d=" M 130.501 -25 L 130.501 25 L 87 50 L 87 0 L 130.501 -25 Z " fill="rgb(0,0,0)"/></g></g><g><g opacity="0.5"><path d=" M -43.502 -25 L -0.001 0 L 43.499 -25 L -0.001 -50 L -43.502 -25 Z " fill="rgb(0,0,0)"/></g><g opacity="0.75"><path d=" M -43.502 25 L -43.502 -25 L -0.001 0 L -0.001 50 L -43.502 25 Z " fill="rgb(0,0,0)"/></g><g opacity="0.25"><path d=" M 43.499 -25 L 43.499 25 L -0.001 50 L -0.001 0 L 43.499 -25 Z " fill="rgb(0,0,0)"/></g></g><g><g opacity="0.5"><path d=" M 43.499 125 L 87 150 L 130.501 125 L 87 100 L 43.499 125 Z " fill="rgb(0,0,0)"/></g><g opacity="0.75"><path d=" M 43.499 175 L 43.499 125 L 87 150 L 87 200 L 43.499 175 Z " fill="rgb(0,0,0)"/></g><g opacity="0.25"><path d=" M 130.501 125 L 130.501 175 L 87 200 L 87 150 L 130.501 125 Z " fill="rgb(0,0,0)"/></g></g><g><g opacity="0.5"><path d=" M -43.502 125 L -0.001 150 L 43.499 125 L -0.001 100 L -43.502 125 Z " fill="rgb(0,0,0)"/></g><g opacity="0.75"><path d=" M -43.502 175 L -43.502 125 L -0.001 150 L -0.001 200 L -43.502 175 Z " fill="rgb(0,0,0)"/></g><g opacity="0.25"><path d=" M 43.499 125 L 43.499 175 L -0.001 200 L -0.001 150 L 43.499 125 Z " fill="rgb(0,0,0)"/></g></g></svg>